<svg width="63" height="60" viewBox="0 0 63 60" fill="none" xmlns="http://www.w3.org/2000/svg">
<path d="M23.1895 60C29.0838 56.1997 35.0557 52.3994 40.95 48.5992C47.4648 44.3335 53.902 40.0679 60.4167 35.8023C61.3474 35.1818 61.8128 34.4838 61.9679 33.4756C62.8986 28.2793 63.0537 23.083 61.7352 17.9642C59.8738 10.5188 55.3755 5.2449 48.1628 2.45286C41.4153 -0.184073 34.4352 -0.959641 27.4551 1.44462C20.0872 3.92644 14.8909 9.12274 11.2457 15.8702C11.0131 16.3355 10.6253 16.8009 10.2375 17.1111C7.21278 19.4378 4.11051 21.6869 1.00824 24.0136C0.775568 24.2463 0.465341 24.4014 -1.1557e-09 24.7892C0.620454 24.7892 0.930682 24.7892 1.24091 24.7892C10.6253 24.7892 20.0096 24.7892 29.394 24.7892C31.0227 24.7892 32.6514 25.0219 34.2025 25.7975C35.5986 26.4955 36.4517 27.5037 36.8395 29.0548C37.2273 30.6835 37.5375 32.2347 37.9253 33.8634C38.3906 35.4921 37.9253 36.8881 36.7619 37.8963C35.2883 39.2148 33.5821 40.3781 31.9534 41.619C30.5574 42.6273 29.0838 43.6355 27.6102 44.6438C25.3611 46.0398 22.569 46.5827 20.2423 44.1009C19.6219 43.4028 18.8463 42.8599 18.0707 42.317C17.3727 41.8517 16.8298 42.0844 16.9074 42.9375C16.9849 44.5662 17.1401 46.2724 17.5278 47.9011C18.5361 52.1668 20.3974 56.0446 22.8793 59.6898C22.9568 59.6898 23.1119 59.8449 23.1895 60Z" fill="#F2CA00"/>
<path d="M-5.91711e-07 0.112026C0.387783 3.13674 0.775567 6.0839 1.16335 9.03106C1.16335 9.26373 1.55114 9.57396 1.70625 9.57396C3.4125 9.65151 4.73096 10.5822 5.97187 11.668C6.35966 11.9782 6.825 12.366 7.21278 12.7538C7.91079 13.6069 8.68636 13.4518 9.46193 12.9865C12.1764 11.1251 14.8909 9.26373 17.6054 7.40237C18.381 6.85947 18.6136 6.23901 18.3034 5.30833C17.9156 4.14498 17.7605 2.82651 17.4503 1.66316C17.2952 1.19782 16.8298 0.654924 16.3645 0.49981C15.5889 0.189583 14.7358 0.0344709 13.8827 0.0344709C9.53949 -0.0430859 5.1963 0.0344709 0.853124 0.0344709C0.620454 -0.0430859 0.46534 0.0344697 -5.91711e-07 0.112026Z" transform="translate(15.8215 28.5549)" fill="#F2CA00"/>
</svg>
