<svg width="60" height="60" viewBox="0 0 60 60" fill="none" xmlns="http://www.w3.org/2000/svg">
<path d="M59.1645 6.42857C58.6244 6.12245 58.0843 6.12245 57.5442 6.42857C53.7636 8.57143 51.0631 7.65306 49.7128 7.04082V2.14286C49.7128 0.918367 48.9027 0 47.8225 0H12.4462C11.6361 0 10.8259 0.918367 10.8259 2.14286V6.73469C10.0158 7.34694 7.04525 8.87755 2.72448 6.42857C2.18439 6.12245 1.37424 6.12245 0.834148 6.42857C0.5641 6.73469 0.0240043 7.34694 0.0240043 7.95918C0.0240043 8.26531 -1.32624 30.3061 16.2269 33.9796C19.4675 39.1837 23.7882 43.1633 28.379 44.0816C28.379 44.6939 28.379 45.3061 28.379 45.9184H20.0076C19.1974 45.9184 18.3873 46.5306 18.3873 47.7551L17.037 57.551C17.037 58.1633 17.037 58.7755 17.3071 59.3878C17.5771 60 18.1172 60 18.6573 60H41.6114C42.6916 60 43.5017 59.0816 43.5017 57.8571C43.5017 57.551 43.5017 57.2449 43.5017 57.2449L42.1515 47.7551C41.8814 46.8367 41.3414 45.9184 40.5312 45.9184H32.1597C32.1597 45.3061 32.1597 44.6939 32.1597 44.0816C36.7505 43.1633 41.0713 39.1837 44.3119 33.9796C61.3249 30 59.9747 8.26531 59.9747 8.26531C59.9747 7.34694 59.7046 6.73469 59.1645 6.42857ZM3.53463 11.3265C6.50516 12.551 8.93559 11.9388 10.8259 11.3265V14.6939C10.8259 19.2857 11.9061 24.4898 13.7965 28.7755C5.42496 25.102 3.80468 15.9184 3.53463 11.3265ZM46.7423 28.4694C48.6326 23.8776 49.7128 18.9796 49.7128 14.3878V11.3265C51.3331 11.9388 53.4935 12.2449 56.464 11.3265C56.194 15.9184 54.5737 24.7959 46.7423 28.4694Z" fill="#F2CA00"/>
</svg>
