<svg width="60" height="46" viewBox="0 0 60 46" fill="none" xmlns="http://www.w3.org/2000/svg">
<path d="M54.9064 0H5.01873C2.24719 0 0 2.3 0 5.13667V40.94C0 43.7 2.24719 46 5.01873 46H54.9813C57.7528 46 60 43.7 60 40.8633V5.13667C59.9251 2.3 57.6779 0 54.9064 0ZM17.4532 10.1967C20.2247 10.1967 22.4719 12.4967 22.4719 15.3333C22.4719 18.17 20.2247 20.47 17.4532 20.47C14.6816 20.47 12.4345 18.17 12.4345 15.3333C12.4345 12.4967 14.6816 10.1967 17.4532 10.1967ZM27.4906 35.8033H7.49064V30.6667C7.49064 27.83 9.73783 25.53 12.5094 25.53H22.4719C25.2434 25.53 27.4906 27.83 27.4906 30.6667V35.8033ZM52.4345 35.8033H32.4345V30.6667H52.4345V35.8033ZM52.4345 25.53H32.4345V20.3933H52.4345V25.53ZM52.4345 15.3333H27.4906V10.1967H52.4345V15.3333Z" fill="#F2CA00"/>
</svg>
