<svg width="85" height="50" viewBox="0 0 85 50" fill="none" xmlns="http://www.w3.org/2000/svg">
<path d="M12.1824 -3.64693e-07C5.44518 -3.64693e-07 0 5.64052 0 12.6195C0 19.5984 5.44518 25.2389 12.1824 25.2389C18.9197 25.2389 24.3649 19.5984 24.3649 12.6195C24.3649 5.64052 18.9197 -3.64693e-07 12.1824 -3.64693e-07ZM12.1824 19.694C8.39849 19.694 5.35289 16.5392 5.35289 12.6195C5.35289 8.69978 8.39849 5.54492 12.1824 5.54492C15.9664 5.54492 19.012 8.69978 19.012 12.6195C19.1043 16.5392 15.9664 19.694 12.1824 19.694Z" transform="translate(1.38403 24.761)" fill="black"/>
<path d="M12.1824 -3.64693e-07C5.44518 -3.64693e-07 0 5.64052 0 12.6195C0 19.5984 5.44518 25.2389 12.1824 25.2389C18.9197 25.2389 24.3649 19.5984 24.3649 12.6195C24.3649 5.64052 18.9197 -3.64693e-07 12.1824 -3.64693e-07ZM12.1824 19.694C8.39849 19.694 5.35289 16.5392 5.35289 12.6195C5.35289 8.69978 8.39849 5.54492 12.1824 5.54492C15.9664 5.54492 19.012 8.69978 19.012 12.6195C19.1043 16.5392 15.9664 19.694 12.1824 19.694Z" transform="translate(1.38403 24.761)" fill="#F2CA00"/>
<path d="M9.30312 7.8239C9.30312 7.8239 6.3498 2.27898 4.04253 0.558146C1.73525 -1.25829 -3.61764 1.70537 3.76565 4.47783C3.76565 4.47783 5.98064 7.25029 6.44209 8.87552C6.90355 10.5008 10.0414 9.16233 9.30312 7.8239Z" transform="translate(52.1626 3.7439)" fill="black"/>
<path d="M9.30312 7.8239C9.30312 7.8239 6.3498 2.27898 4.04253 0.558146C1.73525 -1.25829 -3.61764 1.70537 3.76565 4.47783C3.76565 4.47783 5.98064 7.25029 6.44209 8.87552C6.90355 10.5008 10.0414 9.16233 9.30312 7.8239Z" transform="translate(52.1626 3.7439)" fill="#F2CA00"/>
<path d="M71.0642 7.36136C65.0652 0.95602 58.5126 0 58.5126 0C58.5126 0 58.1434 2.77246 61.2813 6.02293C64.4192 9.2734 64.6038 16.0611 59.8969 15.7743C55.1901 15.5831 51.8676 11.7591 51.2216 7.83937C51.2216 7.83937 44.2997 6.97895 40.1466 9.2734C36.0858 11.5678 37.101 14.2447 34.4246 17.5908C31.7481 20.9368 22.1499 13.7667 18.2736 10.8986C14.3974 8.03057 5.62976 10.4206 0 15.6787C0 15.6787 12.5516 19.0248 18.2736 22.5621C23.9957 26.0994 29.9023 31.2619 29.3486 42.9253C29.3486 42.9253 46.7916 43.6901 54.2672 43.6901C61.8351 43.6901 53.3443 38.0496 58.328 32.6959C63.404 27.3422 67.0956 24.7609 71.5256 21.128C75.9556 17.5908 77.1554 13.7667 71.0642 7.36136Z" fill="black"/>
<path d="M71.0642 7.36136C65.0652 0.95602 58.5126 0 58.5126 0C58.5126 0 58.1434 2.77246 61.2813 6.02293C64.4192 9.2734 64.6038 16.0611 59.8969 15.7743C55.1901 15.5831 51.8676 11.7591 51.2216 7.83937C51.2216 7.83937 44.2997 6.97895 40.1466 9.2734C36.0858 11.5678 37.101 14.2447 34.4246 17.5908C31.7481 20.9368 22.1499 13.7667 18.2736 10.8986C14.3974 8.03057 5.62976 10.4206 0 15.6787C0 15.6787 12.5516 19.0248 18.2736 22.5621C23.9957 26.0994 29.9023 31.2619 29.3486 42.9253C29.3486 42.9253 46.7916 43.6901 54.2672 43.6901C61.8351 43.6901 53.3443 38.0496 58.328 32.6959C63.404 27.3422 67.0956 24.7609 71.5256 21.128C75.9556 17.5908 77.1554 13.7667 71.0642 7.36136Z" fill="#F2CA00"/>
<path d="M3.2348 5.16251C6.55728 5.16251 10.895 6.30973 13.3868 6.97895C9.4183 1.24283 4.98833 0.0956013 4.06542 -7.29386e-07C1.20439 1.05162 -0.0876848 3.25047 0.00460633 4.30209C0.0968974 5.06691 0.92752 5.16251 1.66585 5.16251C1.85043 5.16251 1.94272 5.16251 2.1273 5.16251C2.40418 5.16251 2.77334 5.16251 3.2348 5.16251Z" transform="translate(71.6133 22.2749)" fill="black"/>
<path d="M3.2348 5.16251C6.55728 5.16251 10.895 6.30973 13.3868 6.97895C9.4183 1.24283 4.98833 0.0956013 4.06542 -7.29386e-07C1.20439 1.05162 -0.0876848 3.25047 0.00460633 4.30209C0.0968974 5.06691 0.92752 5.16251 1.66585 5.16251C1.85043 5.16251 1.94272 5.16251 2.1273 5.16251C2.40418 5.16251 2.77334 5.16251 3.2348 5.16251Z" transform="translate(71.6133 22.2749)" fill="#F2CA00"/>
<path d="M22.2434 4.4933C19.4746 3.82408 15.9676 3.05926 13.3834 3.34607C10.6147 3.63288 9.87635 1.81644 10.8916 -3.64693e-07C6.73845 2.29445 0.278071 7.93497 0.0934887 10.0382C-0.737131 16.9216 4.06201 23.2313 10.707 24.0917C17.3519 24.9521 23.4431 19.9808 24.2738 13.0975C24.5506 9.94261 23.8123 6.97895 22.2434 4.4933ZM11.8145 18.738C8.03053 18.5468 5.1695 15.2007 5.35409 11.281C5.53867 7.36136 8.76885 4.39769 12.5528 4.5889C16.3367 4.7801 19.1978 8.12617 19.0132 12.0459C18.8286 15.8699 15.5984 18.9292 11.8145 18.738Z" transform="translate(59.6191 25.7163)" fill="black"/>
<path d="M22.2434 4.4933C19.4746 3.82408 15.9676 3.05926 13.3834 3.34607C10.6147 3.63288 9.87635 1.81644 10.8916 -3.64693e-07C6.73845 2.29445 0.278071 7.93497 0.0934887 10.0382C-0.737131 16.9216 4.06201 23.2313 10.707 24.0917C17.3519 24.9521 23.4431 19.9808 24.2738 13.0975C24.5506 9.94261 23.8123 6.97895 22.2434 4.4933ZM11.8145 18.738C8.03053 18.5468 5.1695 15.2007 5.35409 11.281C5.53867 7.36136 8.76885 4.39769 12.5528 4.5889C16.3367 4.7801 19.1978 8.12617 19.0132 12.0459C18.8286 15.8699 15.5984 18.9292 11.8145 18.738Z" transform="translate(59.6191 25.7163)" fill="#F2CA00"/>
</svg>
