<svg width="60" height="60" viewBox="0 0 60 60" fill="none" xmlns="http://www.w3.org/2000/svg">
<path d="M36.3403 0.661797C36.6008 2.6807 36.9264 4.63448 37.187 6.58826C37.187 6.78364 37.187 6.91389 37.2521 7.10927C37.4475 7.76053 40.7038 8.86767 41.2899 8.41179C42.7227 7.36978 44.1554 6.32776 45.5231 5.22062C46.0441 4.76474 46.4348 4.89499 46.8907 5.22062C50.0168 7.36978 52.6218 10.0399 54.771 13.166C55.0966 13.6219 55.0966 13.9475 54.771 14.4034C53.6638 15.771 52.6218 17.2689 51.5798 18.6366C51.2542 19.0925 51.1239 19.4832 51.4495 20.0042C51.6449 20.3299 51.8403 20.6555 51.9054 20.9811C52.1659 22.479 53.0777 22.9349 54.4453 23C55.813 23.0651 57.1806 23.3908 58.4832 23.521C59.0693 23.5862 59.2647 23.7815 59.3949 24.3025C59.9159 27.0378 60.0462 29.8382 59.7857 32.5735C59.7206 33.6156 59.5252 34.7227 59.3298 35.7647C59.2647 36.0252 58.939 36.3508 58.6785 36.416C56.9201 36.7416 55.0966 37.0021 53.3382 37.1975C52.7521 37.2626 52.4264 37.458 52.2962 38.0441C52.2311 38.3698 52.1008 38.7605 51.9054 39.0861C50.9937 40.3235 51.3844 41.3656 52.3613 42.4076C53.2731 43.4496 54.0546 44.5567 54.8361 45.6639C55.0315 45.9244 55.0315 46.5105 54.9012 46.771C52.7521 49.9622 50.0819 52.6324 46.8907 54.8466C46.4348 55.1723 46.1092 55.1071 45.6533 54.7815C44.2857 53.6744 42.7878 52.6324 41.4201 51.5903C41.0294 51.2647 40.6386 51.1345 40.1827 51.4601C39.8571 51.6555 39.4664 51.8508 39.0756 51.916C37.5777 52.1765 37.187 53.1534 37.1218 54.521C37.0567 55.8887 36.7962 57.3214 36.5357 58.6891C36.4706 58.9496 36.1449 59.3403 35.8193 59.4055C31.9769 60.187 28.1996 60.187 24.3571 59.4706C23.8361 59.4055 23.6407 59.145 23.5756 58.6239C23.3802 56.8655 23.0546 55.1071 22.8592 53.3487C22.7941 52.7626 22.5987 52.437 22.0126 52.3067C21.7521 52.2416 21.4265 52.1113 21.166 51.9811C19.8634 51.0693 18.7563 51.3298 17.584 52.437C16.6723 53.3487 15.5 54 14.458 54.8466C14.0021 55.2374 13.6765 55.2374 13.2206 54.9118C10.0294 52.6975 7.35924 50.0273 5.14495 46.8361C4.81932 46.3803 4.88445 46.0546 5.21008 45.5987C6.31722 44.2311 7.35924 42.7332 8.40125 41.3656C8.72688 40.9748 8.85714 40.584 8.53151 40.1282C8.33613 39.8677 8.14075 39.542 8.14075 39.2164C7.88025 37.458 6.70798 37.1324 5.14495 37.0021C3.84243 36.937 2.53991 36.6765 1.30252 36.416C1.04202 36.3508 0.65126 35.9601 0.586134 35.6996C-0.195378 31.8572 -0.195378 28.0798 0.586134 24.2374C0.65126 23.9769 1.04202 23.5862 1.30252 23.5862C3.12605 23.2605 4.94958 23.0651 6.7731 22.7395C7.09873 22.6744 7.35924 22.3488 7.61974 22.0883C7.68487 22.0231 7.68487 21.8277 7.74999 21.6975C9.05252 19.874 8.53151 18.3109 7.09873 16.813C6.38235 16.0315 5.73109 15.1198 5.14495 14.2731C4.94958 14.0126 4.94958 13.4916 5.07983 13.2311C7.22899 9.97482 9.96428 7.30465 13.1555 5.09037C13.6113 4.76474 13.8718 4.82986 14.2626 5.15549C15.6302 6.26263 17.1281 7.30465 18.4958 8.34667C18.9517 8.6723 19.3424 8.80255 19.7983 8.47692C20.1239 8.28154 20.5147 8.08616 20.9054 8.02104C22.4033 7.76053 22.729 6.78364 22.7941 5.48112C22.8592 4.11348 23.1849 2.74583 23.3151 1.37818C23.3802 0.726923 23.6407 0.531545 24.2269 0.466419C28.3298 -0.184841 32.3025 -0.184841 36.3403 0.661797ZM18.8865 29.708C18.8214 35.7647 23.771 40.6492 29.8277 40.7143C35.8193 40.7143 40.834 35.7647 40.834 29.7731C40.834 23.7815 35.8844 18.8971 29.8928 18.832C23.8361 18.7668 18.8865 23.6513 18.8865 29.708Z" fill="#F2CA00"/>
</svg>
