<svg width="20" height="20" viewBox="0 0 20 20" fill="none" xmlns="http://www.w3.org/2000/svg">
<path d="M19.8693 1.70492C19.7386 0.852459 18.9542 0.131148 18.1046 0C18.0392 0 18.0392 0 17.9739 0H1.96078C1.89542 0 1.76471 0 1.69935 0.0655738C0.784314 0.262295 0.130719 0.983607 0 1.83607C0 1.90164 0 1.96721 0 1.96721V18.0328C0 18.1639 0 18.2295 0.0653595 18.3607C0.261438 19.2131 0.980392 19.8689 1.89542 20C1.96078 20 1.96078 20 2.02614 20H17.9739C18.0392 20 18.1699 20 18.3007 19.9344C19.085 19.7377 19.8039 19.082 19.9346 18.2951C19.9346 18.2295 19.9346 18.0984 20 18.0328V1.96721C19.9346 1.90164 19.9346 1.83607 19.8693 1.70492ZM9.93464 5.96721C12.2222 5.96721 13.9869 7.80328 13.9869 10.0984C13.9216 12.3279 12.0915 14.0984 9.86928 14.0328C7.71242 13.9672 5.88235 12.1967 5.94771 9.90164C5.94771 7.73771 7.77778 5.96721 9.93464 5.96721ZM17.7778 17.0492C17.7778 17.5082 17.3856 17.8361 16.9935 17.8361H2.94118C2.48366 17.8361 2.15686 17.4426 2.15686 17.0492V8.13115H4.05229C3.52941 9.83607 3.72549 11.4754 4.5098 13.0492C5.09804 14.0984 5.88235 14.8852 6.9281 15.4754C8.95425 16.6557 11.5033 16.5246 13.3987 15.2131C14.1176 14.6885 14.7712 14.0984 15.2288 13.3115C15.6863 12.5246 16.0131 11.7377 16.0784 10.8197C16.2092 9.90164 16.0784 9.04918 15.817 8.19672H17.7124V17.0492H17.7778ZM17.7778 4.32787C17.7778 4.78689 17.451 5.11475 16.9935 5.11475C16.6667 5.11475 16.3399 5.11475 16.0131 5.11475H15.098C14.7059 5.11475 14.4444 4.91803 14.3137 4.59016C14.3137 4.52459 14.2484 4.39344 14.2484 4.32787C14.2484 3.67213 14.2484 3.08197 14.2484 2.42623C14.2484 1.96721 14.5752 1.63934 15.0327 1.63934H16.9935C17.451 1.63934 17.7778 2.03279 17.7778 2.42623V4.32787Z" fill="#191919"/>
</svg>
