<svg width="60" height="52" viewBox="0 0 60 52" fill="none" xmlns="http://www.w3.org/2000/svg">
<g opacity="0.5">
<path opacity="0.3" d="M5.74816 4.93247L3.45465 9.84575L2.92854e-07 2.61018H2.15916L3.39707 -5.85709e-07L5.74816 4.93247Z" transform="translate(19.1597 14.1543)" fill="#191919"/>
<path opacity="0.3" d="M13.4348 0.00959621C11.8418 0.00959621 10.3448 0.671738 9.27957 1.7849C8.84774 2.23593 8.49268 2.75412 8.22399 3.3299L8.07045 3.66577L7.34113 5.23955L6.81334 6.37191L6.10322 7.85933L5.74815 8.62703L3.66577 13.0989L2.43745 15.7091L-3.66068e-08 20.9486H10.8246C11.0453 20.9486 11.2564 20.939 11.4771 20.9102L9.04926 15.7091H7.06284L8.06085 13.5787L8.29116 13.0989L9.11644 11.3332L10.3831 8.62703L10.7382 7.85933L11.2564 6.75576C11.314 6.6406 11.3716 6.52545 11.4483 6.4103C11.9281 5.69058 12.7438 5.23955 13.6267 5.23955H17.2157L15.997 7.85933L14.0585 12.0049L16.3712 16.9566L16.9566 15.7091L18.1753 13.0893L20.5936 7.85933L21.8123 5.23955L24.2497 -7.32136e-08H13.4348V0.00959621Z" transform="translate(9.57324 1.57227)" fill="#191919"/>
<path opacity="0.3" d="M11.2372 6.76536L10.719 7.86893H20.5744L18.1369 13.1085L16.9182 15.7187L15.8818 17.9354C15.0181 19.7779 13.1756 20.9582 11.1412 20.9582H2.92854e-07L2.43745 15.7187H10.623C11.6403 15.7187 12.5615 15.1333 12.9933 14.2025L13.5115 13.0989H3.66577L6.10321 7.85933L7.32194 5.23955L8.35833 3.02282C9.22199 1.18034 11.0645 7.32136e-08 13.0989 7.32136e-08H24.2401L21.8027 5.24915H13.6171C12.5999 5.24915 11.669 5.84412 11.2372 6.76536Z" transform="translate(27.1729 1.56421)" fill="#191919"/>
</g>
<path d="M5.74816 4.92287L3.45465 9.83615L1.46427e-07 2.60058H2.15916L3.39707 5.85709e-07L5.74816 4.92287Z" transform="translate(17.5864 12.5901)" fill="#191919"/>
<path d="M13.4348 0C11.8418 0 10.3448 0.662141 9.27957 1.77531C8.84774 2.22633 8.49268 2.74453 8.22399 3.3203L8.06085 3.66577L7.33154 5.23955L6.80374 6.37191L6.11281 7.85933L5.75775 8.62703L3.67536 13.0989L2.45664 15.7187L0 20.939H10.8246C11.0453 20.939 11.2564 20.9294 11.4771 20.9006L9.04926 15.6995H7.06284L8.06085 13.5691L8.29116 13.0893L9.11644 11.3236L10.364 8.61743L10.719 7.84973L11.2372 6.74616C11.2948 6.63101 11.3524 6.51585 11.4291 6.4007C11.9089 5.68098 12.7246 5.22996 13.6075 5.22996H17.1965L15.9778 7.84973L14.0393 11.9953L16.352 16.947L16.9374 15.6995L18.1561 13.0797L20.5936 7.84013L21.8123 5.22036L24.2593 0H13.4348Z" transform="translate(8 0.00805664)" fill="#191919"/>
<path d="M11.2468 6.75576L10.7286 7.85933H20.584L18.1465 13.0989L16.9278 15.7187L15.8914 17.9258C15.0277 19.7683 13.1852 20.9486 11.1508 20.9486H-5.85709e-07L2.43745 15.7091H10.623C11.6403 15.7091 12.5615 15.1237 12.9933 14.1929L13.5115 13.0893H3.66577L6.10321 7.85933L7.32194 5.23955L8.35833 3.02282C9.222 1.18034 11.0645 -1.42995e-10 13.0989 -1.42995e-10H24.2401L21.8027 5.23955H13.6171C12.5999 5.24915 11.669 5.83452 11.2468 6.75576Z" transform="translate(25.5996)" fill="#191919"/>
<path d="M0.0271648 4.77233L0.407504 2.39069C0.470893 2.0013 0.615783 1.65719 0.842174 1.34024C1.06857 1.03235 1.34024 0.778787 1.6753 0.588618C2.0013 0.398449 2.36353 0.253558 2.74386 0.153946C3.1242 0.0543339 3.52265 -1.38178e-07 3.9211 -1.38178e-07C4.2471 -1.38178e-07 4.54594 0.0271668 4.84478 0.0905565C5.13456 0.153946 5.40623 0.253558 5.65979 0.380338C5.91335 0.507117 6.12162 0.670119 6.29368 0.851232C6.46574 1.0414 6.59252 1.25874 6.66497 1.52135C6.71025 1.68435 6.73741 1.85641 6.73741 2.03752C6.73741 2.14619 6.72836 2.26392 6.71025 2.38164L6.33896 4.76328C6.26652 5.21606 6.07635 5.62357 5.7594 5.99485L6.26652 6.54724L5.07117 7.47092L4.52783 6.82797C3.99355 7.0453 3.42304 7.15397 2.81631 7.15397C2.49031 7.15397 2.19147 7.12681 1.89263 7.06342C1.5938 7.00003 1.33118 6.90041 1.07762 6.77363C0.824066 6.64686 0.615786 6.48385 0.443728 6.30274C0.271671 6.11257 0.144888 5.89524 0.0724431 5.63262C0.0271648 5.46962 -1.10543e-06 5.29756 -1.10543e-06 5.1255C-1.10543e-06 5.00778 0.00905345 4.89911 0.0271648 4.77233ZM1.95602 4.69989C1.94697 4.76328 1.94697 4.82667 1.94697 4.881C1.94697 4.98967 1.97413 5.09834 2.03752 5.18889C2.10997 5.31567 2.21864 5.41529 2.36353 5.47867C2.49936 5.54206 2.65331 5.57829 2.82537 5.5964C2.85253 5.5964 2.88875 5.60545 2.92498 5.60545C3.06081 5.60545 3.19665 5.57829 3.33248 5.52395L2.7982 4.93534L3.98449 4.0841L4.43727 4.58216L4.79045 2.39975C4.7995 2.36353 4.7995 2.32731 4.7995 2.29108C4.7995 2.09186 4.70894 1.92886 4.51878 1.81113C4.30144 1.6753 4.02977 1.60285 3.70377 1.60285C3.48643 1.60285 3.27815 1.63002 3.08798 1.69341C2.88876 1.74774 2.72575 1.8383 2.58086 1.96508C2.43597 2.09186 2.35447 2.23675 2.3273 2.40881L1.95602 4.69989Z" transform="translate(0 38)" fill="#191919"/>
<path d="M0.0275361 4.58217L0.733877 6.90892e-08H2.68084L1.9745 4.61839C1.96545 4.66367 1.96544 4.69989 1.96544 4.74517C1.96544 4.95345 2.04695 5.11645 2.20995 5.23417C2.40012 5.37906 2.64462 5.45151 2.94345 5.45151C3.25135 5.45151 3.51396 5.37906 3.74941 5.23417C3.98486 5.08928 4.12069 4.881 4.15692 4.61839L4.87231 6.90892e-08H6.81022L6.10388 4.61839C6.0586 4.93534 5.94993 5.22512 5.79599 5.49679C5.64204 5.76846 5.45188 5.99485 5.23454 6.18502C5.00815 6.37519 4.75459 6.53819 4.47386 6.67402C4.19314 6.80986 3.90336 6.90947 3.60452 6.97286C3.30569 7.03625 2.99779 7.07247 2.6899 7.07247C2.3005 7.07247 1.93828 7.01814 1.60322 6.91853C1.2591 6.80986 0.969325 6.66497 0.706711 6.46574C0.453152 6.26652 0.262979 6.01296 0.1362 5.69601C0.0546987 5.47867 0.00942369 5.25228 0.00942369 4.99873C-0.00868764 4.85383 0.000369131 4.718 0.0275361 4.58217Z" transform="translate(7.27051 38.0996)" fill="#191919"/>
<path d="M2.21085e-06 6.97286L1.05951 -1.38178e-07H2.97931L1.9198 6.97286H2.21085e-06Z" transform="translate(14.1357 38.0906)" fill="#191919"/>
<path d="M0.0271648 4.78139L0.39845 2.38164C0.452784 2.0013 0.588619 1.65719 0.805955 1.34929C1.02329 1.0414 1.2859 0.787843 1.60285 0.597674C1.9198 0.407505 2.26392 0.253558 2.6352 0.153946C3.00648 0.0543339 3.38682 -1.38178e-07 3.77621 -1.38178e-07C3.97544 -1.38178e-07 4.1656 0.0181112 4.34672 0.0452782C4.52783 0.0724452 4.718 0.126779 4.90817 0.20828C5.09834 0.280726 5.27945 0.380338 5.4334 0.498061C5.58734 0.615785 5.74129 0.769731 5.87713 0.9599C6.01296 1.15007 6.12163 1.35835 6.20313 1.60285L4.54594 2.18241C4.46444 1.99225 4.32861 1.85641 4.12938 1.76585C3.93016 1.6753 3.71282 1.62096 3.46832 1.62096C3.17854 1.63002 2.92498 1.70246 2.69859 1.8383C2.47219 1.97413 2.33636 2.15525 2.30014 2.38164L1.93791 4.73611C1.92886 4.77233 1.92885 4.80856 1.92885 4.84478C1.92885 5.02589 2.01036 5.17984 2.17336 5.30662C2.36353 5.45151 2.59897 5.52395 2.8797 5.52395C3.11515 5.52395 3.34154 5.46962 3.55887 5.36095C3.77621 5.25228 3.94827 5.09834 4.06599 4.89006L5.63262 5.60545C4.83572 6.64686 3.8396 7.16303 2.65331 7.16303C2.34541 7.16303 2.05564 7.13586 1.78397 7.07247C1.5123 7.00908 1.24968 6.90947 1.01423 6.78269C0.778787 6.65591 0.579565 6.49291 0.416563 6.3118C0.244505 6.13068 0.126779 5.90429 0.0633896 5.64168C0.0181113 5.47868 -1.10543e-06 5.31567 -1.10543e-06 5.13456C-1.10543e-06 5.01684 0.00905345 4.89911 0.0271648 4.78139Z" transform="translate(17.3872 38)" fill="#191919"/>
<path d="M-2.21085e-06 6.97286L1.05951 -1.38178e-07H2.99743L2.60803 2.58086L5.06211 0.00905573H7.45281L3.9211 3.4321L6.37519 6.97286H3.95732L2.36353 4.48255L2.29108 4.555L1.9198 6.97286H-2.21085e-06Z" transform="translate(23.481 38.0906)" fill="#191919"/>
<path d="M0 5.89524L1.37646 4.85384C1.53946 5.06212 1.7568 5.23417 2.03752 5.3519C2.31825 5.46962 2.60803 5.53301 2.90686 5.53301C3.17853 5.53301 3.41398 5.48773 3.60415 5.39718C3.79432 5.30662 3.91204 5.17078 3.94827 4.99873C3.96638 4.89911 3.94827 4.7995 3.88488 4.718C3.82149 4.6365 3.73093 4.56405 3.60415 4.50972C3.47737 4.45539 3.35059 4.41011 3.21476 4.38294C3.07892 4.34672 2.92498 4.31955 2.75292 4.30144C2.44503 4.25616 2.1643 4.16561 1.90169 4.03883C1.63907 3.90299 1.40363 3.73999 1.21346 3.54076C1.02329 3.34154 0.878398 3.10609 0.796897 2.81631C0.751619 2.65331 0.724453 2.49031 0.724453 2.30919C0.724453 2.18242 0.742564 2.04658 0.769731 1.91075C0.842176 1.56663 0.968958 1.26779 1.16818 1.01423C1.36741 0.760676 1.60285 0.561451 1.89264 0.416561C2.17336 0.27167 2.48125 0.163002 2.80725 0.0996124C3.13326 0.0362228 3.47738 -6.90892e-08 3.8396 -6.90892e-08C4.34672 -6.90892e-08 4.7995 0.081501 5.20701 0.244503C5.61451 0.407505 5.96768 0.697286 6.27557 1.10479L4.87194 1.99225C4.718 1.82924 4.52783 1.71152 4.30144 1.62096C4.07505 1.53946 3.8396 1.49418 3.60415 1.48513C3.58604 1.48513 3.56793 1.48513 3.54982 1.48513C3.31437 1.48513 3.11515 1.52135 2.9612 1.60285C2.78914 1.69341 2.68953 1.82019 2.67142 1.99225C2.67142 2.01941 2.66237 2.04658 2.66237 2.06469C2.66237 2.21864 2.73481 2.34542 2.87065 2.43597C3.02459 2.54464 3.26909 2.62614 3.58604 2.69859C3.73999 2.72575 3.88488 2.75292 4.02072 2.78009C4.15655 2.80726 4.29238 2.85253 4.43727 2.89781C4.58216 2.94309 4.70894 2.98837 4.82667 3.0427C4.94439 3.09704 5.06211 3.16043 5.17078 3.23287C5.2885 3.30532 5.38812 3.38682 5.46962 3.47737C5.55112 3.56793 5.62357 3.66754 5.69601 3.77621C5.7594 3.89393 5.80468 4.01166 5.8409 4.14749C5.86807 4.28333 5.88618 4.42822 5.88618 4.60028C5.88618 4.76328 5.86807 4.94439 5.83185 5.13456C5.69601 5.79562 5.34284 6.29369 4.76328 6.6378C4.18371 6.98192 3.46832 7.15397 2.62614 7.15397C2.13714 7.15397 1.64813 7.04531 1.15912 6.82797C0.661062 6.60158 0.27167 6.29369 0 5.89524Z" transform="translate(29.856 38.0178)" fill="#191919"/>
<path d="M-2.21086e-06 6.97286L1.05951 -1.38178e-07H2.99743L2.59897 2.6352H4.79045L5.1889 -1.38178e-07H7.11775L6.05824 6.97286H4.12032L4.51878 4.34672H2.3273L1.92886 6.97286H-2.21086e-06Z" transform="translate(36.2046 38.0906)" fill="#191919"/>
<path d="M1.10543e-06 6.97286L1.05951 -1.38178e-07H2.97931L1.9198 6.97286H1.10543e-06Z" transform="translate(43.4585 38.0906)" fill="#191919"/>
<path d="M-2.21085e-06 6.97286L1.05952 -1.38178e-07H6.34801L6.09446 1.66624H2.74387L2.5537 2.92498H5.47867L5.23417 4.57311H2.30014L1.93791 6.97286H-2.21085e-06Z" transform="translate(46.5737 38.0906)" fill="#191919"/>
<path d="M-4.42171e-06 1.61191L0.253559 -1.38178e-07H6.29368L6.04013 1.61191H3.99355L3.1876 6.97286H1.24968L2.05564 1.61191H-4.42171e-06Z" transform="translate(53.103 38.0906)" fill="#191919"/>
<path d="M1.10543e-06 5.52714e-07H0.298837L1.25873 1.31307L2.21864 5.52714e-07H2.51747V2.40881H2.21864V0.452784L1.25873 1.74774H1.24968L0.289783 0.461838V2.40881H1.10543e-06V5.52714e-07Z" transform="translate(7.28076 49.5459)" fill="#191919"/>
<path d="M0 1.24968C0 0.588617 0.543339 5.52714e-07 1.34024 5.52714e-07C2.13714 5.52714e-07 2.68047 0.579562 2.68047 1.24968C2.68047 1.91074 2.13714 2.49936 1.34024 2.49936C0.543339 2.49936 0 1.9198 0 1.24968ZM2.38164 1.24968C2.38164 0.706341 1.94697 0.253558 1.3493 0.253558C0.751622 0.253558 0.316948 0.697285 0.316948 1.24968C0.316948 1.79302 0.751622 2.2458 1.3493 2.2458C1.94697 2.2458 2.38164 1.80208 2.38164 1.24968Z" transform="translate(11.9258 49.5005)" fill="#191919"/>
<path d="M0.878401 0.253558H1.10543e-06V5.52714e-07H2.06469V0.253558H1.18629V2.41786H0.887455V0.253558H0.878401Z" transform="translate(16.3823 49.5459)" fill="#191919"/>
<path d="M2.21085e-06 1.24968C2.21085e-06 0.588617 0.543341 5.52714e-07 1.34024 5.52714e-07C2.13714 5.52714e-07 2.68048 0.579562 2.68048 1.24968C2.68048 1.91074 2.13714 2.49936 1.34024 2.49936C0.543341 2.49936 2.21085e-06 1.9198 2.21085e-06 1.24968ZM2.37258 1.24968C2.37258 0.706341 1.93791 0.253558 1.34024 0.253558C0.742565 0.253558 0.307891 0.697285 0.307891 1.24968C0.307891 1.79302 0.742565 2.2458 1.34024 2.2458C1.93791 2.2458 2.37258 1.80208 2.37258 1.24968Z" transform="translate(20.2036 49.5005)" fill="#191919"/>
<path d="M-2.21085e-06 2.10091L0.181111 1.90169C0.452781 2.12808 0.715395 2.2458 1.08668 2.2458C1.43985 2.2458 1.6753 2.07375 1.6753 1.82924C1.6753 1.60285 1.53946 1.47607 0.996121 1.3674C0.389391 1.24968 0.117726 1.06857 0.117726 0.661063C0.117726 0.280725 0.479952 5.52714e-07 0.978014 5.52714e-07C1.35835 5.52714e-07 1.63907 0.0996117 1.90169 0.298836L1.72963 0.507117C1.48513 0.326003 1.24062 0.244503 0.968955 0.244503C0.624839 0.244503 0.407503 0.41656 0.407503 0.642952C0.407503 0.869343 0.54334 0.996122 1.1229 1.11385C1.71152 1.23157 1.98319 1.43079 1.98319 1.80208C1.98319 2.21864 1.61191 2.48125 1.08668 2.48125C0.661061 2.49031 0.316946 2.36353 -2.21085e-06 2.10091Z" transform="translate(27.4658 49.5005)" fill="#191919"/>
<path d="M2.21085e-06 1.24968C2.21085e-06 0.570506 0.552393 5.52714e-07 1.33118 5.52714e-07C1.81113 5.52714e-07 2.0828 0.163001 2.34542 0.389393L2.14619 0.579562C1.92885 0.389393 1.6753 0.244503 1.32213 0.244503C0.742564 0.244503 0.307891 0.679175 0.307891 1.24063C0.307891 1.80208 0.75162 2.23675 1.32213 2.23675C1.68435 2.23675 1.9198 2.10997 2.17336 1.89263L2.37258 2.0828C2.10091 2.33636 1.80208 2.49031 1.32213 2.49031C0.561451 2.49936 2.21085e-06 1.94697 2.21085e-06 1.24968Z" transform="translate(31.4321 49.5005)" fill="#191919"/>
<path d="M2.21085e-06 5.52714e-07H0.298838V1.06857H1.82019V5.52714e-07H2.11902V2.40881H1.82019V1.32213H0.298838V2.40881H2.21085e-06V5.52714e-07Z" transform="translate(35.8237 49.5459)" fill="#191919"/>
<path d="M1.10543e-06 1.24968C1.10543e-06 0.588617 0.54334 5.52714e-07 1.34024 5.52714e-07C2.13714 5.52714e-07 2.68047 0.579562 2.68047 1.24968C2.68047 1.91074 2.13714 2.49936 1.34024 2.49936C0.54334 2.49936 1.10543e-06 1.9198 1.10543e-06 1.24968ZM2.37259 1.24968C2.37259 0.706341 1.93791 0.253558 1.34024 0.253558C0.742564 0.253558 0.30789 0.697285 0.30789 1.24968C0.30789 1.79302 0.742564 2.2458 1.34024 2.2458C1.94697 2.2458 2.37259 1.80208 2.37259 1.24968Z" transform="translate(40.062 49.5005)" fill="#191919"/>
<path d="M-2.21085e-06 1.24968C-2.21085e-06 0.588617 0.543342 5.52714e-07 1.34024 5.52714e-07C2.13714 5.52714e-07 2.68047 0.579562 2.68047 1.24968C2.68047 1.91074 2.13714 2.49936 1.34024 2.49936C0.543342 2.49936 -2.21085e-06 1.9198 -2.21085e-06 1.24968ZM2.37259 1.24968C2.37259 0.706341 1.93791 0.253558 1.34024 0.253558C0.742566 0.253558 0.307893 0.697285 0.307893 1.24968C0.307893 1.79302 0.742566 2.2458 1.34024 2.2458C1.93791 2.2458 2.37259 1.80208 2.37259 1.24968Z" transform="translate(44.7627 49.5005)" fill="#191919"/>
<path d="M-4.42171e-06 5.52714e-07H0.298837V2.1643H1.77491V2.41786H-4.42171e-06V5.52714e-07Z" transform="translate(49.5708 49.5459)" fill="#191919"/>
</svg>
