<svg width="216" height="45" viewBox="0 0 216 45" fill="none" xmlns="http://www.w3.org/2000/svg">
<g opacity="0.5">
<path opacity="0.3" d="M10.7777 9.2483L6.47741 18.4606L5.49097e-07 4.89404H4.04838L6.36945 -1.09819e-06L10.7777 9.2483Z" transform="translate(20.9253 26.5394)" fill="#191919"/>
<path opacity="0.3" d="M25.1899 0.0179927C22.2031 0.0179927 19.3962 1.2595 17.399 3.34666C16.5894 4.19232 15.9236 5.16393 15.4198 6.2435L15.1319 6.87325L13.7645 9.82407L12.7749 11.9472L11.4434 14.7361L10.7777 16.1755L6.87325 24.5602L4.57017 29.4542L-6.86371e-08 39.2783H20.2959C20.7097 39.2783 21.1056 39.2603 21.5194 39.2063L16.9672 29.4542H13.2427L15.114 25.4598L15.5458 24.5602L17.0932 21.2495L19.4682 16.1755L20.1339 14.7361L21.1056 12.6669C21.2135 12.451 21.3215 12.2351 21.4654 12.0192C22.3651 10.6697 23.8944 9.82407 25.5498 9.82407H32.2791L29.994 14.7361L26.3595 22.509L30.6957 31.7933L31.7933 29.4542L34.0784 24.5422L38.6126 14.7361L40.8976 9.82407L45.4678 -1.37274e-07H25.1899V0.0179927Z" transform="translate(2.95068 2.95084)" fill="#191919"/>
<path opacity="0.3" d="M21.0696 12.6849L20.098 14.7541H38.5766L34.0064 24.5782L31.7213 29.4722L29.7781 33.6286C28.1587 37.0832 24.7041 39.2963 20.8896 39.2963H5.49097e-07L4.57017 29.4722H19.918C21.8253 29.4722 23.5526 28.3747 24.3623 26.6294L25.3339 24.5602H6.87325L11.4434 14.7361L13.7285 9.82407L15.6717 5.66773C17.2911 2.21311 20.7457 1.37274e-07 24.5602 1.37274e-07H45.4498L40.8796 9.84206H25.5318C23.6246 9.84206 21.8792 10.9576 21.0696 12.6849Z" transform="translate(35.9497 2.93283)" fill="#191919"/>
</g>
<path d="M10.7777 9.23031L6.47741 18.4426L2.74548e-07 4.87605H4.04838L6.36945 1.09819e-06L10.7777 9.23031Z" transform="translate(17.9746 23.6066)" fill="#191919"/>
<path d="M25.1899 0C22.2031 0 19.3962 1.2415 17.399 3.32867C16.5894 4.17433 15.9236 5.14594 15.4198 6.22551L15.114 6.87325L13.7465 9.82407L12.7569 11.9472L11.4614 14.7361L10.7957 16.1755L6.89124 24.5602L4.60616 29.4722L0 39.2603H20.2959C20.7097 39.2603 21.1056 39.2423 21.5194 39.1883L16.9672 29.4362H13.2427L15.114 25.4418L15.5458 24.5422L17.0932 21.2315L19.4322 16.1575L20.098 14.7181L21.0696 12.6489C21.1775 12.433 21.2855 12.2171 21.4294 12.0012C22.3291 10.6517 23.8585 9.80608 25.5138 9.80608H32.2431L29.958 14.7181L26.3235 22.491L30.6597 31.7753L31.7573 29.4362L34.0424 24.5242L38.6126 14.7001L40.8976 9.78808L45.4858 0H25.1899Z" transform="translate(0 0.0180054)" fill="#191919"/>
<path d="M21.0876 12.6669L20.116 14.7361H38.5946L34.0244 24.5602L31.7393 29.4722L29.7961 33.6106C28.1767 37.0652 24.7221 39.2783 20.9076 39.2783H-1.09819e-06L4.57017 29.4542H19.918C21.8253 29.4542 23.5526 28.3567 24.3623 26.6114L25.3339 24.5422H6.87325L11.4434 14.7361L13.7285 9.82407L15.6717 5.66773C17.2911 2.21311 20.7457 -2.68113e-10 24.5602 -2.68113e-10H45.4498L40.8797 9.82407H25.5318C23.6245 9.84206 21.8792 10.9396 21.0876 12.6669Z" transform="translate(32.999)" fill="#191919"/>
<path d="M0.053974 9.48221L0.809674 4.7501C0.935624 3.97641 1.22351 3.29268 1.67333 2.66294C2.12315 2.05118 2.66293 1.54738 3.32867 1.16953C3.97641 0.791683 4.69612 0.503798 5.45182 0.305878C6.20751 0.107957 6.9992 -2.74548e-07 7.79088 -2.74548e-07C8.43862 -2.74548e-07 9.03239 0.0539781 9.62615 0.179928C10.2019 0.305877 10.7417 0.503798 11.2455 0.755698C11.7493 1.0076 12.1631 1.33147 12.505 1.69132C12.8469 2.06917 13.0988 2.501 13.2427 3.02279C13.3327 3.34666 13.3866 3.68852 13.3866 4.04838C13.3866 4.26429 13.3687 4.4982 13.3327 4.73211L12.595 9.46421C12.451 10.3639 12.0732 11.1735 11.4434 11.9112L12.451 13.0088L10.076 14.8441L8.9964 13.5666C7.93482 13.9984 6.80128 14.2143 5.59577 14.2143C4.94803 14.2143 4.35426 14.1603 3.7605 14.0344C3.16674 13.9084 2.64494 13.7105 2.14115 13.4586C1.63735 13.2067 1.22351 12.8828 0.88165 12.523C0.539786 12.1451 0.28788 11.7133 0.143938 11.1915C0.053974 10.8677 -2.19639e-06 10.5258 -2.19639e-06 10.1839C-2.19639e-06 9.95002 0.0179884 9.73411 0.053974 9.48221ZM3.88645 9.33827C3.86846 9.46422 3.86845 9.59016 3.86845 9.69812C3.86845 9.91403 3.92243 10.1299 4.04838 10.3099C4.19232 10.5618 4.40824 10.7597 4.69613 10.8856C4.96602 11.0116 5.27189 11.0836 5.61375 11.1196C5.66773 11.1196 5.7397 11.1375 5.81167 11.1375C6.08156 11.1375 6.35146 11.0836 6.62135 10.9756L5.55978 9.80608L7.91683 8.11475L8.81647 9.10436L9.5182 4.76809C9.53619 4.69612 9.53618 4.62415 9.53618 4.55218C9.53618 4.15634 9.35626 3.83247 8.97841 3.59856C8.54658 3.32867 8.0068 3.18473 7.35906 3.18473C6.92723 3.18473 6.5134 3.23871 6.13555 3.36465C5.73971 3.47261 5.41583 3.65254 5.12795 3.90444C4.84006 4.15634 4.67813 4.44422 4.62415 4.78609L3.88645 9.33827Z" transform="translate(97.8447 9.30228)" fill="#191919"/>
<path d="M0.0547118 9.10436L1.45815 1.37274e-07H5.3266L3.92316 9.17633C3.90517 9.26629 3.90517 9.33826 3.90517 9.42823C3.90517 9.84206 4.0671 10.1659 4.39097 10.3998C4.76882 10.6877 5.25462 10.8317 5.84839 10.8317C6.46014 10.8317 6.98194 10.6877 7.44975 10.3998C7.91756 10.112 8.18746 9.69812 8.25943 9.17633L9.68086 1.37274e-07H13.5313L12.1279 9.17633C12.0379 9.80608 11.822 10.3818 11.5161 10.9216C11.2102 11.4614 10.8324 11.9112 10.4006 12.2891C9.95075 12.6669 9.44695 12.9908 8.88917 13.2607C8.3314 13.5306 7.75563 13.7285 7.16187 13.8545C6.56811 13.9804 5.95635 14.0524 5.34459 14.0524C4.5709 14.0524 3.85119 13.9444 3.18545 13.7465C2.50173 13.5306 1.92596 13.2427 1.40417 12.8469C0.900374 12.451 0.522516 11.9472 0.270617 11.3175C0.108681 10.8856 0.018724 10.4358 0.018724 9.93203C-0.0172616 9.64414 0.00073343 9.37425 0.0547118 9.10436Z" transform="translate(112.292 9.50021)" fill="#191919"/>
<path d="M4.39277e-06 13.8545L2.10515 -2.74548e-07H5.91963L3.81447 13.8545H4.39277e-06Z" transform="translate(125.932 9.48221)" fill="#191919"/>
<path d="M0.053974 9.5002L0.791686 4.73211C0.899642 3.97641 1.16953 3.29268 1.60136 2.68093C2.03319 2.06917 2.55498 1.56537 3.18473 1.18753C3.81447 0.809676 4.49821 0.503798 5.23591 0.305878C5.97362 0.107957 6.72931 -2.74548e-07 7.503 -2.74548e-07C7.89884 -2.74548e-07 8.27669 0.0359853 8.63654 0.0899637C8.9964 0.143942 9.37425 0.2519 9.7521 0.413835C10.1299 0.557777 10.4898 0.755697 10.7957 0.989604C11.1016 1.22351 11.4074 1.52939 11.6773 1.90724C11.9472 2.28509 12.1631 2.69892 12.3251 3.18473L9.03239 4.33627C8.87045 3.95842 8.60056 3.68852 8.20472 3.5086C7.80888 3.32867 7.37705 3.22071 6.89124 3.22071C6.31547 3.2387 5.81167 3.38265 5.36185 3.65254C4.91203 3.92243 4.64215 4.28229 4.57017 4.73211L3.85046 9.41024C3.83247 9.48221 3.83246 9.55418 3.83246 9.62615C3.83246 9.98601 3.9944 10.2919 4.31827 10.5438C4.69612 10.8317 5.16393 10.9756 5.72171 10.9756C6.18952 10.9756 6.63934 10.8677 7.07117 10.6517C7.503 10.4358 7.84486 10.1299 8.07877 9.71611L11.1915 11.1375C9.60816 13.2067 7.62894 14.2323 5.27189 14.2323C4.66013 14.2323 4.08437 14.1783 3.54458 14.0524C3.0048 13.9264 2.48301 13.7285 2.01519 13.4766C1.54738 13.2247 1.15154 12.9008 0.827673 12.541C0.48581 12.1811 0.251899 11.7313 0.12595 11.2095C0.0359856 10.8856 -2.19639e-06 10.5618 -2.19639e-06 10.2019C-2.19639e-06 9.96801 0.0179884 9.73411 0.053974 9.5002Z" transform="translate(132.391 9.30228)" fill="#191919"/>
<path d="M-4.39277e-06 13.8545L2.10516 -2.74548e-07H5.95562L5.18193 5.12795L10.058 0.0179929H14.8081L7.79089 6.81927L12.6669 13.8545H7.86285L4.69612 8.90644L4.55218 9.05038L3.81447 13.8545H-4.39277e-06Z" transform="translate(144.5 9.48221)" fill="#191919"/>
<path d="M0 11.7133L2.73491 9.64414C3.05878 10.058 3.4906 10.3998 4.04838 10.6337C4.60616 10.8677 5.18192 10.9936 5.77569 10.9936C6.31547 10.9936 6.78328 10.9036 7.16113 10.7237C7.53898 10.5438 7.77289 10.2739 7.84486 9.93203C7.88084 9.73411 7.84487 9.53619 7.71892 9.37425C7.59297 9.21232 7.41303 9.06837 7.16113 8.96042C6.90923 8.85246 6.65734 8.7625 6.38744 8.70852C6.11755 8.63655 5.81168 8.58257 5.46982 8.54658C4.85806 8.45662 4.30028 8.27669 3.77849 8.02479C3.2567 7.7549 2.78889 7.43103 2.41104 7.03519C2.03319 6.63934 1.7453 6.17153 1.58336 5.59576C1.4934 5.27189 1.43942 4.94802 1.43942 4.58817C1.43942 4.33627 1.47541 4.06637 1.52939 3.79648C1.67333 3.11276 1.92523 2.51899 2.32108 2.01519C2.71692 1.5114 3.18473 1.11555 3.7605 0.827669C4.31828 0.539784 4.93003 0.323871 5.57777 0.197921C6.22551 0.0719715 6.90924 -1.37274e-07 7.62895 -1.37274e-07C8.63655 -1.37274e-07 9.53619 0.161935 10.3459 0.485806C11.1555 0.809676 11.8573 1.38545 12.469 2.19512L9.68013 3.95842C9.37425 3.63455 8.9964 3.40064 8.54658 3.22071C8.09676 3.05878 7.62895 2.96881 7.16113 2.95082C7.12515 2.95082 7.08917 2.95082 7.05318 2.95082C6.58537 2.95082 6.18953 3.02279 5.88365 3.18473C5.54179 3.36465 5.34386 3.61655 5.30788 3.95842C5.30788 4.0124 5.28989 4.06637 5.28989 4.10236C5.28989 4.40824 5.43383 4.66014 5.70372 4.84006C6.0096 5.05598 6.4954 5.21791 7.12515 5.36186C7.43102 5.41583 7.71892 5.46981 7.98881 5.52379C8.2587 5.57777 8.52859 5.66773 8.81647 5.7577C9.10436 5.84766 9.35626 5.93763 9.59016 6.04558C9.82407 6.15354 10.058 6.27949 10.2739 6.42343C10.5078 6.56737 10.7057 6.72931 10.8677 6.90924C11.0296 7.08916 11.1735 7.28709 11.3175 7.503C11.4434 7.73691 11.5334 7.97081 11.6054 8.2407C11.6593 8.5106 11.6953 8.79848 11.6953 9.14034C11.6953 9.46421 11.6593 9.82407 11.5874 10.2019C11.3175 11.5154 10.6157 12.505 9.46421 13.1887C8.31267 13.8725 6.89124 14.2143 5.21791 14.2143C4.2463 14.2143 3.27469 13.9984 2.30308 13.5666C1.31347 13.1168 0.539784 12.505 0 11.7133Z" transform="translate(157.167 9.33826)" fill="#191919"/>
<path d="M-4.39277e-06 13.8545L2.10516 -2.74548e-07H5.95562L5.16393 5.23591H9.51819L10.3099 -2.74548e-07H14.1423L12.0372 13.8545H8.18672L8.97841 8.63655H4.62415L3.83247 13.8545H-4.39277e-06Z" transform="translate(169.78 9.48221)" fill="#191919"/>
<path d="M2.19639e-06 13.8545L2.10516 -2.74548e-07H5.91963L3.81448 13.8545H2.19639e-06Z" transform="translate(184.192 9.48221)" fill="#191919"/>
<path d="M-4.39277e-06 13.8545L2.10517 -2.74548e-07H12.6129L12.1092 3.31068H5.45182L5.07398 5.81168H10.8856L10.3998 9.08637H4.57017L3.85046 13.8545H-4.39277e-06Z" transform="translate(190.382 9.48221)" fill="#191919"/>
<path d="M-8.78555e-06 3.20272L0.503798 -2.74548e-07H12.505L12.0012 3.20272H7.93483L6.33347 13.8545H2.48301L4.08437 3.20272H-8.78555e-06Z" transform="translate(203.354 9.48221)" fill="#191919"/>
<path d="M2.19639e-06 1.09819e-06H0.593763L2.501 2.60896L4.40824 1.09819e-06H5.002V4.78609H4.40824V0.899641L2.501 3.47261H2.48301L0.575774 0.917632V4.78609H2.19639e-06V1.09819e-06Z" transform="translate(112.311 32.2431)" fill="#191919"/>
<path d="M0 2.48301C0 1.16953 1.07957 1.09819e-06 2.66293 1.09819e-06C4.2463 1.09819e-06 5.32587 1.15154 5.32587 2.48301C5.32587 3.79648 4.2463 4.96601 2.66293 4.96601C1.07957 4.96601 0 3.81447 0 2.48301ZM4.73211 2.48301C4.73211 1.40344 3.86846 0.503797 2.68093 0.503797C1.49341 0.503797 0.629748 1.38544 0.629748 2.48301C0.629748 3.56257 1.49341 4.46221 2.68093 4.46221C3.86846 4.46221 4.73211 3.58057 4.73211 2.48301Z" transform="translate(121.542 32.1531)" fill="#191919"/>
<path d="M1.74531 0.503797H2.19639e-06V1.09819e-06H4.10236V0.503797H2.35706V4.80408H1.76329V0.503797H1.74531Z" transform="translate(130.394 32.2431)" fill="#191919"/>
<path d="M4.39277e-06 2.48301C4.39277e-06 1.16953 1.07957 1.09819e-06 2.66294 1.09819e-06C4.2463 1.09819e-06 5.32587 1.15154 5.32587 2.48301C5.32587 3.79648 4.2463 4.96601 2.66294 4.96601C1.07957 4.96601 4.39277e-06 3.81447 4.39277e-06 2.48301ZM4.71411 2.48301C4.71411 1.40344 3.85046 0.503797 2.66294 0.503797C1.47541 0.503797 0.611753 1.38544 0.611753 2.48301C0.611753 3.56257 1.47541 4.46221 2.66294 4.46221C3.85046 4.46221 4.71411 3.58057 4.71411 2.48301Z" transform="translate(137.987 32.1531)" fill="#191919"/>
<path d="M-4.39277e-06 4.17433L0.359852 3.77849C0.899636 4.22831 1.42143 4.46221 2.15913 4.46221C2.86085 4.46221 3.32866 4.12035 3.32866 3.63455C3.32866 3.18473 3.05877 2.93283 1.9792 2.71691C0.773686 2.48301 0.233911 2.12315 0.233911 1.31347C0.233911 0.557776 0.953623 1.09819e-06 1.94323 1.09819e-06C2.69892 1.09819e-06 3.25669 0.19792 3.77848 0.593761L3.43663 1.0076C2.95082 0.64774 2.46501 0.485806 1.92523 0.485806C1.2415 0.485806 0.809672 0.827668 0.809672 1.27749C0.809672 1.72731 1.07957 1.97921 2.23111 2.21311C3.40064 2.44702 3.94042 2.84286 3.94042 3.58057C3.94042 4.40824 3.20271 4.93003 2.15913 4.93003C1.31347 4.94802 0.629744 4.69612 -4.39277e-06 4.17433Z" transform="translate(152.417 32.1531)" fill="#191919"/>
<path d="M4.39277e-06 2.48301C4.39277e-06 1.13355 1.09756 1.09819e-06 2.64494 1.09819e-06C3.59856 1.09819e-06 4.13834 0.323869 4.66013 0.773689L4.26429 1.15154C3.83246 0.773691 3.32867 0.485806 2.62695 0.485806C1.47541 0.485806 0.611753 1.34946 0.611753 2.46501C0.611753 3.58057 1.4934 4.44422 2.62695 4.44422C3.34666 4.44422 3.81448 4.19232 4.31828 3.7605L4.71411 4.13835C4.17433 4.64214 3.58057 4.94802 2.62695 4.94802C1.11555 4.96601 4.39277e-06 3.86845 4.39277e-06 2.48301Z" transform="translate(160.298 32.1531)" fill="#191919"/>
<path d="M4.39277e-06 1.09819e-06H0.593765V2.12315H3.61655V1.09819e-06H4.21031V4.78609H3.61655V2.62695H0.593765V4.78609H4.39277e-06V1.09819e-06Z" transform="translate(169.024 32.2431)" fill="#191919"/>
<path d="M2.19639e-06 2.48301C2.19639e-06 1.16953 1.07957 1.09819e-06 2.66294 1.09819e-06C4.2463 1.09819e-06 5.32587 1.15154 5.32587 2.48301C5.32587 3.79648 4.2463 4.96601 2.66294 4.96601C1.07957 4.96601 2.19639e-06 3.81447 2.19639e-06 2.48301ZM4.71412 2.48301C4.71412 1.40344 3.85046 0.503797 2.66294 0.503797C1.47541 0.503797 0.611751 1.38544 0.611751 2.48301C0.611751 3.56257 1.47541 4.46221 2.66294 4.46221C3.86845 4.46221 4.71412 3.58057 4.71412 2.48301Z" transform="translate(177.445 32.1531)" fill="#191919"/>
<path d="M-4.39277e-06 2.48301C-4.39277e-06 1.16953 1.07957 1.09819e-06 2.66294 1.09819e-06C4.24631 1.09819e-06 5.32586 1.15154 5.32586 2.48301C5.32586 3.79648 4.24631 4.96601 2.66294 4.96601C1.07957 4.96601 -4.39277e-06 3.81447 -4.39277e-06 2.48301ZM4.71412 2.48301C4.71412 1.40344 3.85046 0.503797 2.66294 0.503797C1.47541 0.503797 0.611755 1.38544 0.611755 2.48301C0.611755 3.56257 1.47541 4.46221 2.66294 4.46221C3.85046 4.46221 4.71412 3.58057 4.71412 2.48301Z" transform="translate(186.783 32.1531)" fill="#191919"/>
<path d="M-8.78555e-06 1.09819e-06H0.593763V4.30028H3.5266V4.80408H-8.78555e-06V1.09819e-06Z" transform="translate(196.337 32.2431)" fill="#191919"/>
</svg>
