<svg width="218" height="240" viewBox="0 0 218 240" fill="none" xmlns="http://www.w3.org/2000/svg">
<path d="M99.6327 7.14558e-05C69.1936 19.9025 38.7546 31.3171 8.02292 38.0489C-15.099 113.854 10.6571 207.22 99.6327 240C188.608 207.22 214.364 113.854 191.242 38.0489C160.511 31.3171 130.072 19.9025 99.6327 7.14558e-05Z" transform="translate(9)" fill="#F2F2F2"/>
<g opacity="0.5">
<path opacity="0.3" d="M28.7405 24.6621L17.2731 49.2283L1.46426e-06 13.0508H10.7957L16.9852 -2.92852e-06L28.7405 24.6621Z" transform="translate(55.8008 130.772)" fill="#191919"/>
<path opacity="0.3" d="M67.1732 0.0479806C59.2083 0.0479806 51.7233 3.35866 46.3975 8.92443C44.2383 11.1795 42.463 13.7705 41.1196 16.6493L40.3519 18.3287L36.7053 26.1975L34.0664 31.8593L30.5158 39.2963L28.7405 43.1348L18.3287 65.4938L12.1871 78.5446L-1.83032e-07 104.742H54.1224C55.2259 104.742 56.2815 104.694 57.3851 104.55L45.2459 78.5446H35.3139L40.3039 67.8929L41.4554 65.4938L45.5818 56.6653L51.9153 43.1348L53.6905 39.2963L56.2815 33.7785C56.5694 33.2027 56.8573 32.627 57.2411 32.0512C59.6402 28.4526 63.7185 26.1975 68.1328 26.1975H86.0776L79.984 39.2963L70.2919 60.024L81.8553 84.7821L84.7821 78.5446L90.8757 65.4458L102.967 39.2963L109.06 26.1975L121.248 -3.66065e-07H67.1732V0.0479806Z" transform="translate(7.86914 67.8689)" fill="#191919"/>
<path opacity="0.3" d="M56.1855 33.8265L53.5946 39.3443H102.871L90.6837 65.5418L84.5902 78.5926L79.4082 89.6762C75.09 98.8885 65.8777 104.79 55.7057 104.79H1.46426e-06L12.1871 78.5926H53.1148C58.2007 78.5926 62.8069 75.6658 64.966 71.0116L67.557 65.4938H18.3287L30.5158 39.2963L36.6094 26.1975L41.7913 15.114C46.1096 5.90164 55.3219 3.66065e-07 65.4938 3.66065e-07H121.2L109.012 26.2455H68.0848C62.9988 26.2455 58.3447 29.2203 56.1855 33.8265Z" transform="translate(95.8662 67.8209)" fill="#191919"/>
</g>
<path d="M28.7405 24.6142L17.2731 49.1803L7.32129e-07 13.0028H10.7957L16.9852 2.92852e-06L28.7405 24.6142Z" transform="translate(47.9316 122.951)" fill="#191919"/>
<path d="M67.1732 0C59.2083 0 51.7233 3.31068 46.3975 8.87645C44.2383 11.1315 42.463 13.7225 41.1196 16.6014L40.3039 18.3287L36.6574 26.1975L34.0184 31.8593L30.5638 39.2963L28.7885 43.1348L18.3767 65.4938L12.2831 78.5926L0 104.694H54.1224C55.2259 104.694 56.2815 104.646 57.3851 104.502L45.2459 78.4966H35.3139L40.3039 67.8449L41.4554 65.4458L45.5818 56.6174L51.8193 43.0868L53.5946 39.2483L56.1855 33.7305C56.4734 33.1547 56.7613 32.579 57.1452 32.0032C59.5442 28.4046 63.6226 26.1495 68.0368 26.1495H85.9816L79.8881 39.2483L70.196 59.976L81.7593 84.7341L84.6862 78.4966L90.7797 65.3979L102.967 39.2003L109.06 26.1016L121.296 0H67.1732Z" transform="translate(0 60.048)" fill="#191919"/>
<path d="M56.2335 33.7785L53.6426 39.2963H102.919L90.7317 65.4938L84.6382 78.5926L79.4562 89.6282C75.138 98.8405 65.9256 104.742 55.7537 104.742H-2.92852e-06L12.1871 78.5446H53.1148C58.2007 78.5446 62.8069 75.6178 64.966 70.9636L67.557 65.4458H18.3287L30.5158 39.2963L36.6094 26.1975L41.7913 15.114C46.1096 5.90164 55.3219 -7.14969e-10 65.4938 -7.14969e-10H121.2L109.012 26.1975H68.0848C62.9988 26.2455 58.3447 29.1723 56.2335 33.7785Z" transform="translate(87.9971 60)" fill="#191919"/>
</svg>
