<svg width="665" height="390" viewBox="0 0 665 390" fill="none" xmlns="http://www.w3.org/2000/svg">
<g opacity="0.1">
<g opacity="0.5">
<path opacity="0.3" d="M81.4996 69.788L48.9814 139.304L4.15221e-06 36.9306H30.6134L48.1651 -8.287e-06L81.4996 69.788Z" transform="translate(253.5 304.696) rotate(-45)" fill="#191919"/>
<path opacity="0.3" d="M190.483 0.135774C167.897 0.135774 146.672 9.5042 131.57 25.254C125.447 31.6354 120.413 38.9672 116.603 47.1137L114.426 51.8657L104.086 74.1327L96.6023 90.1541L86.5339 111.199L81.4996 122.061L51.9747 185.332L34.5591 222.262L-5.19026e-07 296.395H153.475C156.604 296.395 159.598 296.259 162.727 295.852L128.304 222.262H100.14L114.29 192.121L117.555 185.332L129.257 160.349L147.216 122.061L152.251 111.199L159.598 95.585C160.414 93.9557 161.231 92.3265 162.319 90.6972C169.122 80.5141 180.687 74.1327 193.205 74.1327H244.091L226.811 111.199L199.327 169.854L232.118 239.913L240.417 222.262L257.697 185.196L291.984 111.199L309.263 74.1327L343.822 -1.03588e-06H190.483V0.135774Z" transform="translate(31.5225 274.942) rotate(-45)" fill="#191919"/>
<path opacity="0.3" d="M159.326 95.7208L151.978 111.335H291.712L257.152 185.468L239.873 222.398L225.178 253.762C212.933 279.831 186.81 296.531 157.965 296.531H4.15221e-06L34.5591 222.398H150.618C165.04 222.398 178.102 214.116 184.225 200.946L191.572 185.332H51.9747L86.5338 111.199L103.813 74.1327L118.508 42.7689C130.753 16.7002 156.877 1.03588e-06 185.721 1.03588e-06H343.686L309.127 74.2685H193.068C178.646 74.2685 165.448 82.6865 159.326 95.7208Z" transform="translate(207.874 98.3983) rotate(-45)" fill="#191919"/>
</g>
<path d="M81.4997 69.6522L48.9814 139.169L2.0761e-06 36.7948H30.6134L48.1651 8.287e-06L81.4997 69.6522Z" transform="translate(222.073 304.824) rotate(-45)" fill="#191919"/>
<path d="M190.483 0C167.897 0 146.672 9.36842 131.57 25.1182C125.447 31.4996 120.413 38.8314 116.603 46.9779L114.29 51.8658L103.949 74.1327L96.4662 90.1541L86.6699 111.199L81.6357 122.061L52.1108 185.332L34.8312 222.398L0 296.259H153.475C156.605 296.259 159.598 296.124 162.727 295.716L128.304 222.127H100.14L114.29 191.985L117.555 185.196L129.257 160.214L146.944 121.925L151.978 111.063L159.326 95.4493C160.142 93.82 160.958 92.1907 162.047 90.5614C168.85 80.3783 180.415 73.9969 192.932 73.9969H243.819L226.539 111.063L199.055 169.718L231.845 239.777L240.145 222.127L257.425 185.06L291.984 110.928L309.263 73.8612L343.958 0H190.483Z" transform="translate(0.0961914 275.071) rotate(-45)" fill="#191919"/>
<path d="M159.462 95.585L152.115 111.199H291.848L257.289 185.332L240.009 222.398L225.315 253.626C213.069 279.695 186.946 296.395 158.101 296.395H-8.30441e-06L34.5591 222.262H150.618C165.04 222.262 178.102 213.98 184.225 200.81L191.572 185.196H51.9747L86.5339 111.199L103.813 74.1327L118.508 42.7689C130.753 16.7002 156.877 -2.02319e-09 185.721 -2.02319e-09H343.686L309.127 74.1327H193.068C178.646 74.2685 165.448 82.5507 159.462 95.585Z" transform="translate(176.448 98.5267) rotate(-45)" fill="#191919"/>
</g>
</svg>
